<?xml version="1.0" encoding="UTF-8"?>
<svg version="1.1" xmlns="http://www.w3.org/2000/svg" width="2000" height="2000">
<path d="M0 0 C660 0 1320 0 2000 0 C2000 660 2000 1320 2000 2000 C1340 2000 680 2000 0 2000 C0 1340 0 680 0 0 Z " fill="#FFFEFE" transform="translate(0,0)"/>
<path d="M0 0 C0.67998047 0.22913086 1.35996094 0.45826172 2.06054688 0.69433594 C25.67073774 8.69208496 48.20790433 20.53637099 67 37 C68.16231619 37.98253832 69.32649981 38.96287026 70.4921875 39.94140625 C80.73104052 48.56381256 89.66742521 57.48342814 98 68 C99.17369141 69.43085938 99.17369141 69.43085938 100.37109375 70.890625 C117.55385686 92.33471336 134.75096194 121.27487518 138 149 C139.19822388 149.07516846 139.19822388 149.07516846 140.4206543 149.15185547 C161.94760177 150.51379275 183.34473235 152.22337858 204.75 154.9375 C206.63223267 155.17412354 206.63223267 155.17412354 208.55249023 155.41552734 C217.30869182 156.55394202 225.98041145 157.99450857 234.66430664 159.57662964 C237.11951938 160.02166421 239.57611899 160.45824292 242.03320312 160.89282227 C264.12889764 164.80239231 286.1747023 168.75573507 308 174 C309.14275391 174.27166992 310.28550781 174.54333984 311.46289062 174.82324219 C326.6123538 178.44342726 341.54376397 182.52040078 356.40039062 187.19433594 C358.80699705 187.94018504 361.21955094 188.65433473 363.640625 189.3515625 C421.81710621 206.13837343 479.39509207 229.97765261 532 260 C533.11052734 260.63131836 534.22105469 261.26263672 535.36523438 261.91308594 C552.37634283 271.6075304 568.87848229 281.8715535 585 293 C585.79325684 293.54495117 586.58651367 294.08990234 587.40380859 294.65136719 C619.0649273 316.45978063 648.29220996 341.25441442 675.5 368.375 C676.43199219 369.30231934 677.36398437 370.22963867 678.32421875 371.18505859 C683.42423189 376.29703064 688.31832154 381.50385811 693 387 C693.94917044 388.08321603 694.89963789 389.16529728 695.8515625 390.24609375 C703.65351587 399.19044122 710.90539369 408.4883172 718 418 C718.53238281 418.70608398 719.06476563 419.41216797 719.61328125 420.13964844 C752.74271373 464.17116302 777.16387302 516.04179872 787.8125 570.1875 C787.99522461 571.10966309 788.17794922 572.03182617 788.36621094 572.98193359 C791.90552122 592.23224878 793.48552734 611.39218145 793.33618164 630.94921875 C793.31240482 634.26326666 793.31568226 637.57651197 793.32226562 640.890625 C793.29973405 658.98682716 792.17082414 676.77717092 788.6875 694.5625 C788.4702124 695.69743896 788.2529248 696.83237793 788.02905273 698.00170898 C775.25353019 763.38015788 743.48280672 822.18723117 701 873 C700.56494141 873.52142578 700.12988281 874.04285156 699.68164062 874.58007812 C688.89769154 887.46301871 677.41067056 899.65584058 665.5625 911.5625 C664.92473633 912.20493652 664.28697266 912.84737305 663.62988281 913.50927734 C659.82868492 917.2976133 655.90716081 920.89146723 651.84594727 924.39916992 C649.41369994 926.50844723 647.05219807 928.69050443 644.6875 930.875 C639.28343362 935.79181449 633.72481413 940.46285127 628 945 C627.35675781 945.51046875 626.71351562 946.0209375 626.05078125 946.546875 C558.19044832 1000.23305336 481.36333985 1040.03612631 330.95410156 1089.23242188 C328.05531366 1089.98562759 325.16391577 1090.76244428 322.2734375 1091.546875 C280.62941409 1102.78517998 237.79068399 1109.64697372 194.99975586 1114.75970459 C193.12627746 1114.9848262 191.25353749 1115.21606936 189.38085938 1115.44775391 C174.99248559 1117.22437986 160.57652954 1118.50061678 146.125 1119.625 C145.32627472 1119.68762024 144.52754944 1119.75024048 143.70462036 1119.8147583 C138.13872206 1120.24699558 132.57103739 1120.6400814 127 1121 C125.85778992 1121.0747908 125.85778992 1121.0747908 124.69250488 1121.15109253 C106.64998515 1122.28654749 88.57123725 1122.28763809 70.5 1122.3125 C69.67357624 1122.31394516 68.84715248 1122.31539032 67.99568558 1122.31687927 C34.85232762 1122.36351122 2.02468338 1120.93678706 -31 1118 C-31.88129578 1117.92265625 -32.76259155 1117.8453125 -33.67059326 1117.765625 C-44.48887907 1116.80583253 -55.24739196 1115.52562953 -66 1114 C-66.97817688 1113.86144592 -67.95635376 1113.72289185 -68.96417236 1113.58013916 C-77.00123684 1112.43626839 -85.0329866 1111.25815235 -93.0625 1110.0625 C-94.71270142 1109.81759827 -94.71270142 1109.81759827 -96.39624023 1109.56774902 C-117.75651811 1106.37691246 -139.04826971 1102.72592703 -160 1097.4375 C-162.44367676 1096.83328439 -164.8876869 1096.23041546 -167.33203125 1095.62890625 C-168.47623535 1095.3467627 -169.62043945 1095.06461914 -170.79931641 1094.77392578 C-175.08124128 1093.73855569 -179.38029955 1092.79824659 -183.6875 1091.875 C-192.56695035 1089.94056272 -201.27644073 1087.53947278 -210 1085 C-211.00885254 1084.71060547 -212.01770508 1084.42121094 -213.05712891 1084.12304688 C-255.15050296 1072.01288698 -296.13353091 1057.16132766 -336 1039 C-336.61957581 1038.71813843 -337.23915161 1038.43627686 -337.87750244 1038.14587402 C-354.78530775 1030.4463941 -371.4392489 1022.49681217 -387.61816406 1013.33935547 C-389.87702083 1012.06915372 -392.14889295 1010.82793706 -394.4296875 1009.59765625 C-412.9221054 999.58405783 -430.95617277 988.52871268 -448.10058594 976.34619141 C-450.15549541 974.88979413 -452.22144022 973.45000446 -454.2890625 972.01171875 C-481.56014349 952.99038196 -507.67483438 931.72809554 -531 908 C-533.87186918 905.11330189 -536.76412328 902.24888452 -539.671875 899.3984375 C-546.40700666 892.77023881 -552.97292618 886.18737761 -558.81640625 878.7421875 C-560.86943608 876.16396399 -563.0017814 873.69267818 -565.17871094 871.22021484 C-581.57159122 852.53020926 -595.66179633 831.55949228 -608 810 C-608.6801416 808.81809082 -608.6801416 808.81809082 -609.37402344 807.61230469 C-654.22092435 729.15269647 -668.77595704 635.81460925 -645.25732422 548.234375 C-643.65518947 542.43882669 -641.87291412 536.71309573 -640 531 C-639.74669922 530.21173828 -639.49339844 529.42347656 -639.23242188 528.61132812 C-623.38484793 479.63874998 -595.97224542 435.23923043 -563 396 C-562.57460938 395.48969238 -562.14921875 394.97938477 -561.7109375 394.45361328 C-548.65050335 378.81374338 -534.75835605 363.22589307 -519.25 349.96875 C-516.91129273 347.92238114 -514.63964249 345.81635611 -512.36914062 343.69506836 C-507.05325644 338.73187858 -501.6609826 333.9473018 -495.984375 329.39453125 C-493.76972458 327.61759315 -491.57507619 325.82504198 -489.390625 324.01171875 C-480.27345473 316.47018604 -470.88886639 309.41439171 -461.23046875 302.58203125 C-459.06255009 301.04436565 -456.90520119 299.49292349 -454.75 297.9375 C-411.14641935 266.60409498 -362.59790641 241.28791461 -313.1875 220.5 C-312.39624725 220.16665649 -311.60499451 219.83331299 -310.7897644 219.48986816 C-300.28252026 215.07587105 -289.70006301 210.92314335 -279 207 C-278.93268677 205.78606567 -278.93268677 205.78606567 -278.86401367 204.54760742 C-275.17523533 139.78037722 -253.14148082 85.73334249 -205 41 C-200.52981592 37.07088613 -195.82827855 33.47544703 -191 30 C-190.4234668 29.58443848 -189.84693359 29.16887695 -189.25292969 28.74072266 C-135.17598128 -9.72499356 -63.09437458 -21.99594626 0 0 Z " fill="#FEFEFE" transform="translate(924,437)"/>
<path d="M0 0 C0.91458984 0.73089844 0.91458984 0.73089844 1.84765625 1.4765625 C37.2280484 30.05597214 58.96095129 69.83522842 68.6875 113.8125 C69.00956421 115.26269531 69.00956421 115.26269531 69.33813477 116.7421875 C71.7035948 127.73500857 72.20348935 138.33717056 72.1875 149.5625 C72.18709213 150.63405838 72.18709213 150.63405838 72.18667603 151.7272644 C72.1687343 161.95619847 71.86836411 171.90613354 70 182 C69.80535156 183.17949219 69.61070312 184.35898437 69.41015625 185.57421875 C60.46256747 235.39481664 31.84052183 281.37162644 -9.74609375 310.46923828 C-35.76872696 328.14275542 -63.89947413 339.36644399 -95 344 C-96.05807861 344.1757959 -97.11615723 344.3515918 -98.20629883 344.53271484 C-102.64578897 345.07954438 -106.98878704 345.18073111 -111.45703125 345.203125 C-112.35886642 345.20882507 -113.2607016 345.21452515 -114.18986511 345.22039795 C-116.0968612 345.229811 -118.00387328 345.23636717 -119.91088867 345.24023438 C-122.76576988 345.24984273 -125.61989968 345.28086065 -128.47460938 345.3125 C-158.4993223 345.48525064 -187.65752882 337.31792427 -214 323 C-214.89211182 322.52675293 -214.89211182 322.52675293 -215.80224609 322.04394531 C-261.54187801 297.71837639 -293.46333515 255.07348305 -308.7890625 206.140625 C-313.62373544 190.00518343 -315.37818119 173.65006936 -315.25 156.875 C-315.24723053 156.16032562 -315.24446106 155.44565125 -315.24160767 154.70932007 C-315.16533848 137.84585002 -314.15864228 121.40245887 -310 105 C-309.71253906 103.80375 -309.42507813 102.6075 -309.12890625 101.375 C-301.64340625 71.55724066 -287.1454169 45.14339613 -267 22 C-266.50048828 21.42604492 -266.00097656 20.85208984 -265.48632812 20.26074219 C-260.03860548 14.05699429 -254.42744384 8.19523958 -248 3 C-246.99582031 2.16984375 -245.99164062 1.3396875 -244.95703125 0.484375 C-223.50448682 -17.00121525 -199.46709081 -29.12083811 -172.85546875 -36.47705078 C-171.30207119 -36.91486362 -169.75889204 -37.3887178 -168.21875 -37.87109375 C-111.15638313 -55.2967849 -45.35102092 -36.31806604 0 0 Z " fill="#FFFEFE" transform="translate(980,487)"/>
<path d="M0 0 C0.67998047 0.22913086 1.35996094 0.45826172 2.06054688 0.69433594 C25.67073774 8.69208496 48.20790433 20.53637099 67 37 C68.16231619 37.98253832 69.32649981 38.96287026 70.4921875 39.94140625 C80.73104052 48.56381256 89.66742521 57.48342814 98 68 C99.17369141 69.43085938 99.17369141 69.43085938 100.37109375 70.890625 C117.55385686 92.33471336 134.75096194 121.27487518 138 149 C139.19822388 149.07516846 139.19822388 149.07516846 140.4206543 149.15185547 C161.94760177 150.51379275 183.34473235 152.22337858 204.75 154.9375 C206.63223267 155.17412354 206.63223267 155.17412354 208.55249023 155.41552734 C217.30869182 156.55394202 225.98041145 157.99450857 234.66430664 159.57662964 C237.11951938 160.02166421 239.57611899 160.45824292 242.03320312 160.89282227 C264.12889764 164.80239231 286.1747023 168.75573507 308 174 C309.14275391 174.27166992 310.28550781 174.54333984 311.46289062 174.82324219 C326.6123538 178.44342726 341.54376397 182.52040078 356.40039062 187.19433594 C358.80699705 187.94018504 361.21955094 188.65433473 363.640625 189.3515625 C421.81710621 206.13837343 479.39509207 229.97765261 532 260 C533.11052734 260.63131836 534.22105469 261.26263672 535.36523438 261.91308594 C552.37634283 271.6075304 568.87848229 281.8715535 585 293 C585.79325684 293.54495117 586.58651367 294.08990234 587.40380859 294.65136719 C619.0649273 316.45978063 648.29220996 341.25441442 675.5 368.375 C676.43199219 369.30231934 677.36398437 370.22963867 678.32421875 371.18505859 C683.42423189 376.29703064 688.31832154 381.50385811 693 387 C693.94917044 388.08321603 694.89963789 389.16529728 695.8515625 390.24609375 C703.65351587 399.19044122 710.90539369 408.4883172 718 418 C718.53238281 418.70608398 719.06476563 419.41216797 719.61328125 420.13964844 C752.74271373 464.17116302 777.16387302 516.04179872 787.8125 570.1875 C787.99522461 571.10966309 788.17794922 572.03182617 788.36621094 572.98193359 C791.90552122 592.23224878 793.48552734 611.39218145 793.33618164 630.94921875 C793.31240482 634.26326666 793.31568226 637.57651197 793.32226562 640.890625 C793.29973405 658.98682716 792.17082414 676.77717092 788.6875 694.5625 C788.4702124 695.69743896 788.2529248 696.83237793 788.02905273 698.00170898 C775.25353019 763.38015788 743.48280672 822.18723117 701 873 C700.56494141 873.52142578 700.12988281 874.04285156 699.68164062 874.58007812 C688.89769154 887.46301871 677.41067056 899.65584058 665.5625 911.5625 C664.92473633 912.20493652 664.28697266 912.84737305 663.62988281 913.50927734 C659.82868492 917.2976133 655.90716081 920.89146723 651.84594727 924.39916992 C649.41369994 926.50844723 647.05219807 928.69050443 644.6875 930.875 C639.28343362 935.79181449 633.72481413 940.46285127 628 945 C627.35675781 945.51046875 626.71351562 946.0209375 626.05078125 946.546875 C558.19044832 1000.23305336 481.36333985 1040.03612631 330.95410156 1089.23242188 C328.05531366 1089.98562759 325.16391577 1090.76244428 322.2734375 1091.546875 C280.62941409 1102.78517998 237.79068399 1109.64697372 194.99975586 1114.75970459 C193.12627746 1114.9848262 191.25353749 1115.21606936 189.38085938 1115.44775391 C174.99248559 1117.22437986 160.57652954 1118.50061678 146.125 1119.625 C145.32627472 1119.68762024 144.52754944 1119.75024048 143.70462036 1119.8147583 C138.13872206 1120.24699558 132.57103739 1120.6400814 127 1121 C125.85778992 1121.0747908 125.85778992 1121.0747908 124.69250488 1121.15109253 C106.64998515 1122.28654749 88.57123725 1122.28763809 70.5 1122.3125 C69.67357624 1122.31394516 68.84715248 1122.31539032 67.99568558 1122.31687927 C34.85232762 1122.36351122 2.02468338 1120.93678706 -31 1118 C-31.88129578 1117.92265625 -32.76259155 1117.8453125 -33.67059326 1117.765625 C-44.48887907 1116.80583253 -55.24739196 1115.52562953 -66 1114 C-66.97817688 1113.86144592 -67.95635376 1113.72289185 -68.96417236 1113.58013916 C-77.00123684 1112.43626839 -85.0329866 1111.25815235 -93.0625 1110.0625 C-94.71270142 1109.81759827 -94.71270142 1109.81759827 -96.39624023 1109.56774902 C-117.75651811 1106.37691246 -139.04826971 1102.72592703 -160 1097.4375 C-162.44367676 1096.83328439 -164.8876869 1096.23041546 -167.33203125 1095.62890625 C-168.47623535 1095.3467627 -169.62043945 1095.06461914 -170.79931641 1094.77392578 C-175.08124128 1093.73855569 -179.38029955 1092.79824659 -183.6875 1091.875 C-192.56695035 1089.94056272 -201.27644073 1087.53947278 -210 1085 C-211.00885254 1084.71060547 -212.01770508 1084.42121094 -213.05712891 1084.12304688 C-255.15050296 1072.01288698 -296.13353091 1057.16132766 -336 1039 C-336.61957581 1038.71813843 -337.23915161 1038.43627686 -337.87750244 1038.14587402 C-354.78530775 1030.4463941 -371.4392489 1022.49681217 -387.61816406 1013.33935547 C-389.87702083 1012.06915372 -392.14889295 1010.82793706 -394.4296875 1009.59765625 C-412.9221054 999.58405783 -430.95617277 988.52871268 -448.10058594 976.34619141 C-450.15549541 974.88979413 -452.22144022 973.45000446 -454.2890625 972.01171875 C-481.56014349 952.99038196 -507.67483438 931.72809554 -531 908 C-533.87186918 905.11330189 -536.76412328 902.24888452 -539.671875 899.3984375 C-546.40700666 892.77023881 -552.97292618 886.18737761 -558.81640625 878.7421875 C-560.86943608 876.16396399 -563.0017814 873.69267818 -565.17871094 871.22021484 C-581.57159122 852.53020926 -595.66179633 831.55949228 -608 810 C-608.6801416 808.81809082 -608.6801416 808.81809082 -609.37402344 807.61230469 C-654.22092435 729.15269647 -668.77595704 635.81460925 -645.25732422 548.234375 C-643.65518947 542.43882669 -641.87291412 536.71309573 -640 531 C-639.74669922 530.21173828 -639.49339844 529.42347656 -639.23242188 528.61132812 C-623.38484793 479.63874998 -595.97224542 435.23923043 -563 396 C-562.57460938 395.48969238 -562.14921875 394.97938477 -561.7109375 394.45361328 C-548.65050335 378.81374338 -534.75835605 363.22589307 -519.25 349.96875 C-516.91129273 347.92238114 -514.63964249 345.81635611 -512.36914062 343.69506836 C-507.05325644 338.73187858 -501.6609826 333.9473018 -495.984375 329.39453125 C-493.76972458 327.61759315 -491.57507619 325.82504198 -489.390625 324.01171875 C-480.27345473 316.47018604 -470.88886639 309.41439171 -461.23046875 302.58203125 C-459.06255009 301.04436565 -456.90520119 299.49292349 -454.75 297.9375 C-411.14641935 266.60409498 -362.59790641 241.28791461 -313.1875 220.5 C-312.39624725 220.16665649 -311.60499451 219.83331299 -310.7897644 219.48986816 C-300.28252026 215.07587105 -289.70006301 210.92314335 -279 207 C-278.93268677 205.78606567 -278.93268677 205.78606567 -278.86401367 204.54760742 C-275.17523533 139.78037722 -253.14148082 85.73334249 -205 41 C-200.52981592 37.07088613 -195.82827855 33.47544703 -191 30 C-190.4234668 29.58443848 -189.84693359 29.16887695 -189.25292969 28.74072266 C-135.17598128 -9.72499356 -63.09437458 -21.99594626 0 0 Z M-183.5625 46.1875 C-184.20517822 46.66219727 -184.84785645 47.13689453 -185.51000977 47.62597656 C-189.44239265 50.60749848 -192.95062099 53.81570591 -196.37011719 57.37402344 C-198.05983216 59.05968876 -199.83481526 60.55945091 -201.6875 62.0625 C-227.52281784 84.44977736 -244.39052456 118.53581199 -253 151 C-253.29519531 152.00289062 -253.59039063 153.00578125 -253.89453125 154.0390625 C-263.83763326 188.03173638 -262.07247958 230.80948033 -250 264 C-249.54221584 265.32135398 -249.08520067 266.64297459 -248.62890625 267.96484375 C-245.19022191 277.71526154 -240.86253337 286.88506984 -236 296 C-235.67773438 296.61117676 -235.35546875 297.22235352 -235.0234375 297.85205078 C-230.18788315 306.95065736 -224.54087119 315.07419355 -218 323 C-217.51450684 323.58845703 -217.02901367 324.17691406 -216.52880859 324.78320312 C-184.28801112 363.59253127 -139.3223023 388.88271419 -89 395 C-85.87101462 395.15637123 -82.74582063 395.18730835 -79.61328125 395.203125 C-78.71618942 395.20882507 -77.8190976 395.21452515 -76.89482117 395.22039795 C-74.99621748 395.2298127 -73.09759771 395.23636785 -71.19897461 395.24023438 C-68.36606077 395.24981879 -65.53391209 395.28082439 -62.70117188 395.3125 C-45.01660347 395.41479099 -27.90357396 393.34077519 -11 388 C-10.24783203 387.76297363 -9.49566406 387.52594727 -8.72070312 387.28173828 C15.68135198 379.45086121 38.73176295 368.12732182 58 351 C59.18335938 349.9790625 59.18335938 349.9790625 60.390625 348.9375 C97.99725432 315.94071556 123.80101534 269.92036953 127.79052734 219.44335938 C128.17445143 213.13232748 128.24448064 206.82125867 128.25 200.5 C128.25067474 199.79790405 128.25134949 199.09580811 128.25204468 198.37243652 C128.23430494 186.68808101 127.47753264 175.44015805 125 164 C124.82839355 163.18708496 124.65678711 162.37416992 124.47998047 161.53662109 C120.46514241 142.98369205 113.98050995 125.7006745 105 109 C104.68981934 108.40912598 104.37963867 107.81825195 104.06005859 107.20947266 C80.77230635 63.01077208 39.75568848 31.78686237 -7 16 C-7.6914209 15.76152344 -8.3828418 15.52304687 -9.09521484 15.27734375 C-68.20005289 -4.82145957 -134.20794392 9.61322479 -183.5625 46.1875 Z M143 167 C143.06856201 167.86963379 143.13712402 168.73926758 143.20776367 169.63525391 C143.9598609 179.88451438 144.28101716 190.09881915 144.3125 200.375 C144.31511841 201.20260834 144.31773682 202.03021667 144.32043457 202.88290405 C144.32496887 216.34928184 143.3412203 229.26911401 140.53369141 242.4765625 C140.05289764 244.74988562 139.63210843 247.02417538 139.23046875 249.3125 C133.26859914 280.79588929 116.00513258 312.02716979 95 336 C94.30777344 336.80179688 93.61554687 337.60359375 92.90234375 338.4296875 C57.56601126 378.57586561 7.76013602 405.65444022 -46 410 C-49.16590754 410.14353295 -52.32719207 410.18644667 -55.49609375 410.203125 C-56.36911636 410.20882507 -57.24213898 410.21452515 -58.14161682 410.22039795 C-59.97940895 410.22977533 -61.81721734 410.2363527 -63.6550293 410.24023438 C-66.39989379 410.24986801 -69.14398452 410.28093203 -71.88867188 410.3125 C-83.86982446 410.38451248 -95.24605816 409.30992246 -107 407 C-108.04889404 406.79584473 -109.09778809 406.59168945 -110.1784668 406.38134766 C-112.67414619 405.86119601 -115.14914028 405.29445181 -117.625 404.6875 C-118.49342529 404.47657715 -119.36185059 404.2656543 -120.2565918 404.04833984 C-128.72148998 401.92534059 -136.88688928 399.20373995 -145 396 C-145.65242676 395.74524902 -146.30485352 395.49049805 -146.97705078 395.22802734 C-196.27886559 375.68132224 -238.03646487 335.06023377 -259.109375 286.44042969 C-261.62270928 280.36881508 -263.87160404 274.21598974 -266 268 C-266.28359375 267.17387207 -266.5671875 266.34774414 -266.859375 265.49658203 C-271.32256303 252.23070297 -273.90454372 238.82173496 -276 225 C-280.88258819 225.6054825 -285.11749523 227.08717012 -289.6171875 228.9921875 C-290.34304047 229.29395401 -291.06889343 229.59572052 -291.81674194 229.90663147 C-294.17254679 230.88897172 -296.52395433 231.8813288 -298.875 232.875 C-300.50487639 233.55934148 -302.13475924 234.24366755 -303.76464844 234.92797852 C-321.32029738 242.32374442 -338.71165316 250.08231618 -355.65625 258.79931641 C-358.44170618 260.22628239 -361.23698537 261.63333124 -364.03125 263.04296875 C-393.88453591 278.20393547 -422.83244303 295.38142677 -449.74511719 315.33496094 C-452.11404075 317.08420939 -454.49692229 318.8130392 -456.8828125 320.5390625 C-465.20907002 326.58248635 -473.32376711 332.74657124 -481.09375 339.4921875 C-483.85022342 341.8707573 -486.65962943 344.16030636 -489.5 346.4375 C-495.30170652 351.1660585 -500.76521589 356.21736896 -506.22167969 361.33496094 C-508.11388602 363.10663134 -510.01331963 364.87030547 -511.9140625 366.6328125 C-513.23450394 367.85923619 -514.55481887 369.0857961 -515.875 370.3125 C-516.48118164 370.87477295 -517.08736328 371.4370459 -517.71191406 372.01635742 C-523.11271642 377.05053922 -528.52263148 382.12093619 -533.3125 387.75 C-536.10745842 390.99515307 -538.97465906 394.16112492 -541.875 397.3125 C-563.36800174 420.93864176 -581.01715303 447.43289527 -597 475 C-597.41620605 475.71607422 -597.83241211 476.43214844 -598.26123047 477.16992188 C-612.57509911 502.07825644 -622.58228802 529.59707032 -629.36376953 557.42724609 C-629.93249373 559.72702183 -630.53187573 562.01453272 -631.15234375 564.30078125 C-633.74953982 573.96201612 -635.37944168 583.64978679 -636.67529297 593.56201172 C-636.96882224 595.76590892 -637.295411 597.96204733 -637.62890625 600.16015625 C-642.30239068 633.61868255 -639.29815496 669.1989883 -632 702 C-631.72792725 703.25248535 -631.45585449 704.5049707 -631.17553711 705.79541016 C-628.88510086 716.09845569 -625.90837038 726.03715968 -622.4375 736 C-622.17611237 736.75523956 -621.91472473 737.51047913 -621.64541626 738.28860474 C-605.90781888 783.59517778 -581.87359717 824.36679058 -551 861 C-550.56252441 861.52239258 -550.12504883 862.04478516 -549.67431641 862.58300781 C-539.04491002 875.25553611 -527.7922087 887.27907841 -516.125 899 C-515.09113159 900.04087769 -515.09113159 900.04087769 -514.03637695 901.1027832 C-509.52001105 905.60501677 -504.83623958 909.84555881 -500 914 C-498.83234005 915.0223041 -497.66564304 916.04570929 -496.5 917.0703125 C-465.77358388 943.94067668 -432.42052694 967.68666263 -397 988 C-396.13391113 988.50225098 -395.26782227 989.00450195 -394.37548828 989.52197266 C-336.96468385 1022.78451695 -274.38674981 1049.87410873 -210.08203125 1066.65234375 C-206.82931561 1067.50127859 -203.60314736 1068.40154603 -200.38671875 1069.37890625 C-182.6313008 1074.75339937 -164.4787906 1078.5475705 -146.362854 1082.48577881 C-144.17025495 1082.9629479 -141.97834149 1083.4431305 -139.78662109 1083.92431641 C-123.67516836 1087.44431195 -107.57511001 1090.26243329 -91.24267578 1092.53222656 C-88.12208594 1092.98238845 -85.01275054 1093.47671708 -81.90234375 1093.9921875 C-62.35526898 1097.21772063 -42.71814452 1099.1807584 -23 1101 C-22.20920736 1101.07308065 -21.41841473 1101.14616131 -20.60365868 1101.22145653 C6.78151589 1103.72672616 34.017749 1104.47960169 61.51049805 1104.39111328 C66.86192805 1104.37403392 72.21290966 1104.38419866 77.56432438 1104.40143967 C105.17397628 1104.47666183 132.49833749 1103.4302009 160 1101 C161.17003571 1100.89951355 162.34007141 1100.7990271 163.54556274 1100.69549561 C169.4326527 1100.18674546 175.31127096 1099.62102328 181.1875 1099 C182.41708435 1098.87244324 182.41708435 1098.87244324 183.67150879 1098.74230957 C188.45371838 1098.24617849 193.23435704 1097.73715775 198.01385498 1097.21557617 C199.76158388 1097.02587768 201.50990054 1096.84161091 203.25830078 1096.65820312 C222.99781522 1094.55759752 242.50213356 1090.5765204 262.00097656 1086.9296875 C266.05704523 1086.17234684 270.11682912 1085.43890215 274.1796875 1084.71875 C287.52773123 1082.31557349 300.69736816 1079.25371984 313.875 1076.0625 C314.72814789 1075.85707581 315.58129578 1075.65165161 316.46029663 1075.44000244 C328.39968705 1072.55331573 340.16663372 1069.25410702 351.90606689 1065.64151001 C354.55142858 1064.83106101 357.20444193 1064.04798838 359.859375 1063.26953125 C437.2978805 1040.31763581 511.34878826 1006.44013665 663.5 889.625 C664.3367627 888.79291016 665.17352539 887.96082031 666.03564453 887.10351562 C670.8972043 882.22927268 675.52422203 877.22872563 680 872 C680.92547337 870.95170146 681.85247428 869.90474882 682.78125 868.859375 C691.43801529 859.00677553 699.25768965 848.57862318 707 838 C707.8048584 836.91114502 707.8048584 836.91114502 708.62597656 835.80029297 C762.69322584 762.49196863 785.64340076 672.08434944 772.578125 582.09423828 C771.65016736 576.3277978 770.40369574 570.66756968 769 565 C768.76297363 564.02466309 768.52594727 563.04932617 768.28173828 562.04443359 C762.66824989 539.25571454 755.11447545 517.19053835 745 496 C744.68740234 495.34306152 744.37480469 494.68612305 744.05273438 494.00927734 C741.78994453 489.2927894 739.41925704 484.63788755 737 480 C736.42306396 478.88383301 736.42306396 478.88383301 735.83447266 477.74511719 C725.18899574 457.28843504 712.26037414 438.10870885 698 420 C697.4730957 419.33033203 696.94619141 418.66066406 696.40332031 417.97070312 C690.09262197 409.99338119 683.59305659 402.26219197 676.6328125 394.84375 C674.67599693 392.73015692 672.79556972 390.59764229 670.92578125 388.41015625 C666.40415524 383.22070201 661.53148176 378.38161162 656.6574707 373.52709961 C655.06541034 371.94040054 653.4787701 370.34842258 651.89257812 368.75585938 C646.4342784 363.29361764 640.89762314 357.99054704 635 353 C633.88175454 352.02725654 632.76453679 351.05333016 631.6484375 350.078125 C624.16365252 343.59545388 616.52717454 337.35772613 608.68945312 331.30712891 C607.06336787 330.04902769 605.44493345 328.7817087 603.828125 327.51171875 C574.79688977 304.87168829 543.36964227 285.45079339 511 268 C509.46786865 267.16903809 509.46786865 267.16903809 507.90478516 266.32128906 C469.83723265 245.7592534 429.70179466 229.79879061 388.96582031 215.40795898 C386.39706194 214.49950041 383.83605405 213.5751582 381.27636719 212.64086914 C373.75830865 209.90200008 366.22206435 207.52877814 358.5 205.4375 C356.30591505 204.83360408 354.11190392 204.22943985 351.91796875 203.625 C350.88720215 203.34269531 349.85643555 203.06039062 348.79443359 202.76953125 C345.4592637 201.85109201 342.13535374 200.89948419 338.8125 199.9375 C336.5423471 199.28927894 334.27143958 198.64369786 332 198 C331.24315918 197.78520996 330.48631836 197.57041992 329.70654297 197.34912109 C269.6142388 180.3809245 205.46674072 168.67181429 143 167 Z " fill="#FF244B" transform="translate(924,437)"/>
<path d="M0 0 C2.47199508 1.92390568 4.82346864 3.92173549 7.15234375 6.015625 C8.08626953 6.81033203 8.08626953 6.81033203 9.0390625 7.62109375 C22.18530345 19.58565012 29.40180523 38.91738312 30.47265625 56.34375 C31.24773821 77.17407778 24.09248058 97.67318586 9.9921875 113.26953125 C-7.3077721 129.68796424 -28.16101877 135.52905358 -51.44921875 135.22265625 C-72.43224377 134.6249224 -90.73852528 125.83132881 -105.16015625 110.765625 C-120.07157795 92.83416853 -124.25923294 71.83348614 -122.84765625 49.015625 C-121.13841149 35.09790866 -114.12424475 21.38357686 -104.84765625 11.015625 C-104.1928125 10.26796875 -103.53796875 9.5203125 -102.86328125 8.75 C-77.22692761 -18.75762033 -30.23540694 -21.06939194 0 0 Z " fill="#39E6FD" transform="translate(773.84765625,941.984375)"/>
<path d="M0 0 C18.15 0 36.3 0 55 0 C53.73130085 10.14959317 52.39616439 20.19111988 50.69335938 30.26220703 C50.46942495 31.60139258 50.2457864 32.94062763 50.02241516 34.27990723 C49.54690149 37.12719576 49.06937194 39.97413549 48.59016418 42.8208046 C47.82996286 47.33683104 47.07455332 51.85365162 46.31970215 56.37057495 C45.12403228 63.52197284 43.92532708 70.67285789 42.72524595 77.82351673 C40.57809824 90.61738832 38.43462409 103.41187452 36.29459429 116.20693862 C35.54589137 120.68251031 34.79536935 125.15777176 34.04329681 129.63277841 C33.57345958 132.43027661 33.10500293 135.22800487 32.6368618 138.02578735 C32.32112895 139.9101142 32.00372146 141.79416021 31.68623352 143.67819214 C30.72723152 149.41717176 29.82182692 155.15714939 29.01246643 160.91925049 C27.96076115 168.39871358 26.73934821 175.84618324 25.49389648 183.29541016 C25.24878845 184.76877667 25.00381782 186.24216604 24.75897217 187.71557617 C24.10145685 191.66968651 23.44192942 195.62345864 22.78191638 199.57715273 C22.08874561 203.73107165 21.39717291 207.8852567 20.70533752 212.03939819 C19.54568985 219.00090664 18.38468621 225.96218793 17.22290039 232.92333984 C15.88034169 240.96776843 14.54013859 249.01258688 13.20113128 257.05760729 C12.04813891 263.98463327 10.89388448 270.91144809 9.7385717 277.83808744 C9.04987571 281.96714854 8.36161587 286.09628104 7.6744976 290.22560501 C7.0299824 294.09846884 6.38388391 297.97106525 5.73655701 301.84346008 C5.49936398 303.26397303 5.26272332 304.68457834 5.02667427 306.10528183 C4.70458015 308.04330759 4.38029319 309.98096854 4.05589294 311.91860962 C3.87505378 313.00289057 3.69421461 314.08717152 3.50789547 315.20430946 C3.09314877 317.48726625 2.56276139 319.74895444 2 322 C-16.15 322 -34.3 322 -53 322 C-51.87516109 309.62677202 -51.87516109 309.62677202 -51.09545898 305.03686523 C-50.92114853 303.99783554 -50.74683807 302.95880585 -50.56724548 301.88829041 C-50.28452538 300.24009056 -50.28452538 300.24009056 -49.99609375 298.55859375 C-49.79452164 297.36097916 -49.59294952 296.16336456 -49.38526917 294.92945862 C-48.73990293 291.09813651 -48.08913323 287.26776074 -47.4375 283.4375 C-46.60001801 278.49917551 -45.76545587 273.56036803 -44.93359375 268.62109375 C-44.76551083 267.62372664 -44.76551083 267.62372664 -44.59403229 266.60621071 C-42.67124326 255.18025767 -40.83668976 243.74130059 -39.02073479 232.29794312 C-33.30689491 196.31325455 -27.28637335 160.37915991 -21.29233342 124.4403221 C-20.02689902 116.8516962 -18.76449761 109.26256802 -17.50276172 101.67332643 C-16.26099293 94.20489934 -15.01727185 86.73679901 -13.77209103 79.26894003 C-13.03875854 74.87072064 -12.30607343 70.47239653 -11.57534409 66.07374382 C-7.90914529 44.01077638 -4.04985507 21.99639849 0 0 Z " fill="#FF224A" transform="translate(999,1178)"/>
<path d="M0 0 C10.99797008 -0.0682734 21.9957952 -0.12309951 32.99393082 -0.15543652 C38.10296874 -0.1709709 43.21185189 -0.19198028 48.32080078 -0.22631836 C53.26808909 -0.25935483 58.21523028 -0.27694442 63.16262054 -0.28463173 C65.03288839 -0.29009701 66.90314988 -0.30076397 68.77335358 -0.31719017 C78.52986632 -0.39933073 88.07714412 -0.10103199 97.74902344 1.26831055 C98.5466724 1.3764977 99.34432137 1.48468485 100.16614151 1.5961504 C110.81427276 3.28351783 121.10522255 8.47211567 127.83984375 17.1015625 C133.16510931 25.81563341 136.13701945 35.78283927 135 46 C132.11814061 57.56037311 124.91923855 67.3871743 115 74 C115.86882812 74.49628906 116.73765625 74.99257813 117.6328125 75.50390625 C126.42448095 80.63556213 133.61683227 85.25703 136.53125 95.4921875 C138.57230016 106.41180583 136.96722018 117.91239378 130.9375 127.3125 C124.13444121 136.20221127 115.42966348 140.53154896 104.55362892 142.42615891 C102.09720301 142.73180953 99.64586245 142.97102988 97.17895508 143.17529297 C96.27448293 143.25514372 95.37001078 143.33499447 94.43813038 143.41726494 C84.67035726 144.21268716 74.93017767 144.25353604 65.13671875 144.1953125 C63.23859305 144.19156717 61.34046538 144.18872743 59.44233704 144.18673706 C54.52540435 144.17921991 49.60859606 144.15967903 44.69171143 144.1373291 C39.64279868 144.11660867 34.59386518 144.10768024 29.54492188 144.09765625 C19.69655205 144.07641764 9.84830598 144.04133802 0 144 C0 137.73 0 131.46 0 125 C6.27 125 12.54 125 19 125 C19 90.02 19 55.04 19 19 C12.73 19 6.46 19 0 19 C0 12.73 0 6.46 0 0 Z " fill="#39E6FD" transform="translate(971,931)"/>
<path d="M0 0 C11.01524076 -0.06823941 22.03033722 -0.12308045 33.04574299 -0.15543652 C38.16265639 -0.17097909 43.27941556 -0.19200423 48.39624023 -0.22631836 C53.35000779 -0.25932463 58.30362861 -0.27693833 63.25749779 -0.28463173 C65.13138318 -0.29010225 67.00526211 -0.30078024 68.87908363 -0.31719017 C87.47492006 -0.47331131 110.04514282 -0.61707206 124.3203125 13.125 C133.68195147 23.57520164 134.86864921 35.45880634 134.1640625 48.96044922 C133.35437798 59.02608085 128.36619474 67.15669237 121 73.875 C113.58178654 80 113.58178654 80 109 80 C109.45890625 80.59425781 109.9178125 81.18851563 110.390625 81.80078125 C119.50118724 94.10769621 121.28440494 107.00845355 123.58276367 121.83618164 C123.90630904 124.03743221 123.90630904 124.03743221 125 126 C126.32 125.67 127.64 125.34 129 125 C131.20194688 117.52364015 131.20194688 117.52364015 132.625 109.875 C133 107 133 107 134 106 C136.3149807 106.06438632 138.62813201 106.20150433 140.9375 106.375 C142.20464844 106.46523437 143.47179687 106.55546875 144.77734375 106.6484375 C148 107 148 107 150 108 C150.53938856 118.60797507 148.97019907 129.61584626 142 138 C135.37579799 144.93230443 127.77268662 146.15979133 118.5 146.375 C108.43159715 146.13165492 100.31711232 144.19930384 93 137 C86.59524284 128.58051182 83.88156882 118.43468808 80.74731445 108.49975586 C80.07198174 106.37445111 79.37855308 104.25567183 78.68359375 102.13671875 C78.08889282 100.26052856 78.08889282 100.26052856 77.48217773 98.34643555 C75.95407342 94.35378418 75.95407342 94.35378418 71 90 C66.05 89.34 61.1 88.68 56 88 C56 100.21 56 112.42 56 125 C61.94 125 67.88 125 74 125 C74 131.27 74 137.54 74 144 C49.58 144 25.16 144 0 144 C0 137.73 0 131.46 0 125 C5.94 125 11.88 125 18 125 C18 90.02 18 55.04 18 19 C12.06 19 6.12 19 0 19 C0 12.73 0 6.46 0 0 Z " fill="#39E6FD" transform="translate(813,931)"/>
<path d="M0 0 C3.04891938 1.50109469 5.9176674 3.14065024 8.796875 4.94921875 C9.74304687 5.5421875 10.68921875 6.13515625 11.6640625 6.74609375 C12.68242188 7.38675781 13.70078125 8.02742188 14.75 8.6875 C16.93226187 10.0560371 19.11455438 11.42452535 21.296875 12.79296875 C22.41255859 13.49341309 23.52824219 14.19385742 24.67773438 14.91552734 C29.78080379 18.1173209 34.89050953 21.30846742 40 24.5 C42.00003663 25.74994138 44.00003652 26.99994158 46 28.25 C46.99 28.86875 47.98 29.4875 49 30.125 C60 37 71 43.875 82 50.75 C82.99104736 51.36939453 83.98209473 51.98878906 85.00317383 52.62695312 C86.99263102 53.87038413 88.9820519 55.11387321 90.97143555 56.35742188 C96.13243638 59.58341764 101.29416388 62.80824213 106.45703125 66.03125 C107.52115234 66.69576172 108.58527344 67.36027344 109.68164062 68.04492188 C111.69442393 69.30181276 113.70742659 70.55835245 115.72070312 71.81445312 C117.51333111 72.93406376 119.29942581 74.06424602 121.07688904 75.20777893 C123.94350524 77.02611812 123.94350524 77.02611812 126.8752594 78.42185974 C134.3212139 82.34584678 134.3212139 82.34584678 136.11976624 86.72879028 C136.65741123 90.07668699 136.83812191 93.26942248 136.8828125 96.66015625 C136.92179657 97.88222275 136.96078064 99.10428925 137.00094604 100.36338806 C137.0608858 102.94576665 137.09100871 105.5289874 137.09326172 108.11206055 C137.12481181 112.03907577 137.33675252 115.92934373 137.55859375 119.84960938 C138.02877241 137.54688485 138.02877241 137.54688485 132.78475952 143.52560425 C127.31925361 147.93025953 121.29304682 150.89263681 114.88265991 153.67532349 C110.5051365 155.68693867 106.5688069 158.28054205 102.5625 160.9375 C101.01743834 161.92212211 99.47075397 162.90420626 97.921875 163.8828125 C97.13103516 164.38458008 96.34019531 164.88634766 95.52539062 165.40332031 C90.79926759 168.39141434 86.05533909 171.35103757 81.3125 174.3125 C80.30324463 174.942771 79.29398926 175.57304199 78.25415039 176.22241211 C76.19636522 177.50728344 74.13850348 178.79203214 72.08056641 180.07666016 C67.05253516 183.21589222 62.02632342 186.35803447 57 189.5 C50.94234112 193.28665553 44.88424953 197.07260997 38.82421875 200.85546875 C37.80666504 201.490896 36.78911133 202.12632324 35.74072266 202.78100586 C33.72637207 204.03880721 31.71172983 205.29614162 29.69677734 206.55297852 C24.89703779 209.55012798 20.10798279 212.56216199 15.33984375 215.609375 C14.01690308 216.45302612 14.01690308 216.45302612 12.66723633 217.3137207 C11.01220973 218.37082067 9.35956899 219.43166839 7.7097168 220.49682617 C6.98308838 220.96064697 6.25645996 221.42446777 5.5078125 221.90234375 C4.87504395 222.30960693 4.24227539 222.71687012 3.59033203 223.13647461 C2 224 2 224 0 224 C-0.51358443 216.0294364 -0.90232142 208.06592453 -1.13986778 200.08283043 C-1.25400947 196.37343962 -1.40801189 192.67546322 -1.65966797 188.97265625 C-3.23071938 165.22987215 -3.23071938 165.22987215 2.01785278 158.35809326 C7.16768208 153.81004753 13.02510467 150.91520822 19.29467773 148.20257568 C22.84452856 146.62458834 25.91805061 144.67982314 29.16796875 142.5546875 C31.17354292 141.32659473 33.18003027 140.0999918 35.1875 138.875 C43.77430388 133.61455795 52.32052288 128.29759071 60.82226562 122.90087891 C66.16411073 119.51414911 71.54279828 116.19856553 77 113 C74.65023897 110.44366657 72.14254894 108.7072922 69.1953125 106.8828125 C68.23044922 106.28275391 67.26558594 105.68269531 66.27148438 105.06445312 C65.23314453 104.42443359 64.19480469 103.78441406 63.125 103.125 C62.04798828 102.45662109 60.97097656 101.78824219 59.86132812 101.09960938 C56.57668237 99.06239522 53.28868517 97.03068522 50 95 C48.19515141 93.88307276 46.39045272 92.76590325 44.5859375 91.6484375 C42.0488774 90.07757727 39.51156092 88.50714431 36.97314453 86.93847656 C28.93169821 81.96706691 20.91593394 76.95482486 12.90429688 71.93554688 C11.94587891 71.33548828 10.98746094 70.73542969 10 70.1171875 C9.154375 69.58722168 8.30875 69.05725586 7.4375 68.51123047 C5.02596237 66.94701002 5.02596237 66.94701002 2.38313293 65.79402161 C0 64 0 64 -0.60127258 61.20954895 C-0.59016953 60.07925766 -0.57906647 58.94896637 -0.56762695 57.78442383 C-0.5672493 56.5033223 -0.56687164 55.22222076 -0.56648254 53.90229797 C-0.54094917 52.50386589 -0.51486919 51.10544369 -0.48828125 49.70703125 C-0.47895452 48.27643569 -0.47183774 46.84582415 -0.46684265 45.41520691 C-0.44776114 41.6517011 -0.39865255 37.88916179 -0.34332275 34.1260376 C-0.29215385 30.28532995 -0.26933379 26.44446596 -0.24414062 22.60351562 C-0.19053309 15.06857002 -0.10520868 7.53442048 0 0 Z " fill="#FF234A" transform="translate(1080,1227)"/>
<path d="M0 0 C0.60772647 8.06570579 1.06664211 16.12164033 1.34711647 24.20469666 C1.48191917 27.96117864 1.66352809 31.7018598 1.96142578 35.44921875 C3.82586272 59.5285553 3.82586272 59.5285553 -2.48077393 66.89938354 C-8.68396349 71.96845412 -15.47314205 75.34329467 -22.81199646 78.54260254 C-27.37398323 80.62811714 -31.463456 83.2828506 -35.625 86.0625 C-37.12154003 87.01641469 -38.6199966 87.96733516 -40.12109375 88.9140625 C-40.89050293 89.40165039 -41.65991211 89.88923828 -42.45263672 90.39160156 C-50.41348873 95.41806246 -58.4090956 100.38958904 -66.39599609 105.37451172 C-69.93159204 107.58152445 -73.46586822 109.7906436 -77 112 C-73.68689437 114.73671858 -70.33780653 117.13032836 -66.66796875 119.36328125 C-65.63446289 119.99508301 -64.60095703 120.62688477 -63.53613281 121.27783203 C-62.43108398 121.94927246 -61.32603516 122.62071289 -60.1875 123.3125 C-57.83101285 124.75224342 -55.47612976 126.19460324 -53.12109375 127.63671875 C-52.2257341 128.18434875 -52.2257341 128.18434875 -51.31228638 128.74304199 C-45.43791431 132.33791841 -39.58978628 135.97421905 -33.75 139.625 C-32.89172607 140.16036377 -32.03345215 140.69572754 -31.14916992 141.24731445 C-29.29305807 142.40825587 -27.45822517 143.60362532 -25.64111328 144.82470703 C-22.69296233 146.71177238 -19.63215267 148.04357481 -16.41748047 149.42138672 C-10.09576149 152.38030445 -4.30294462 155.3594624 0 161 C3.33198278 170.74410006 2.18694608 181.5131864 1.51062012 191.62927246 C1.28322877 195.39463569 1.1846224 199.16330862 1.07421875 202.93359375 C0.84001751 210.29802969 0.46614041 217.64620501 0 225 C-1.91624182 223.88766866 -3.83179992 222.77415942 -5.74707031 221.66015625 C-6.81387024 221.04019775 -7.88067017 220.42023926 -8.97979736 219.78149414 C-12.64130516 217.62172029 -16.2040966 215.3426722 -19.75 213 C-29.70250923 206.49712877 -39.79574152 200.22361959 -49.88720703 193.93945312 C-54.92829805 190.79855689 -59.96390525 187.64889839 -65 184.5 C-66.99607551 183.25257498 -68.99216929 182.00517919 -70.98828125 180.7578125 C-75.02811357 178.23299953 -79.06708726 175.70682034 -83.10546875 173.1796875 C-94.38055773 166.1254228 -105.66807354 159.09196059 -116.98046875 152.09765625 C-118.15452271 151.31986816 -118.15452271 151.31986816 -119.35229492 150.52636719 C-122.04129974 148.86064351 -122.04129974 148.86064351 -125.4387207 147.84082031 C-129.49734009 146.19255396 -132.62919049 144.72888487 -135 141 C-137.29855822 133.11145326 -136.99262887 124.73519418 -136.85961914 116.59277344 C-136.81263457 112.63633212 -136.9200264 108.70445027 -137.04101562 104.75 C-137.20818654 87.08031479 -137.20818654 87.08031479 -133.47888184 81.87811279 C-129.77430632 78.49246053 -125.57340265 76.52854551 -120.91696167 74.75860596 C-118.45730634 73.78523794 -116.37292483 72.45263066 -114.1953125 70.9609375 C-105.17629207 65.23100321 -96.10701973 59.58911944 -87 54 C-78.67259497 48.88890779 -70.37198178 43.74147804 -62.12109375 38.5078125 C-55.76499146 34.47684849 -49.38507631 30.48488729 -43 26.5 C-38.99949889 24.00080124 -34.99962261 21.50060439 -31 19 C-29.63536621 18.14728516 -29.63536621 18.14728516 -28.24316406 17.27734375 C-15.76924046 9.50682026 -15.76924046 9.50682026 -3.71484375 1.109375 C-2 0 -2 0 0 0 Z " fill="#FF234A" transform="translate(920,1227)"/>
<path d="M0 0 C44.22 0 88.44 0 134 0 C134 15.51 134 31.02 134 47 C127.07 47 120.14 47 113 47 C112.896875 44.545625 112.79375 42.09125 112.6875 39.5625 C112.21271052 28.91782487 112.21271052 28.91782487 107 20 C100.07 19.67 93.14 19.34 86 19 C86 53.98 86 88.96 86 125 C91.94 125 97.88 125 104 125 C104 131.27 104 137.54 104 144 C79.58 144 55.16 144 30 144 C30 137.73 30 131.46 30 125 C35.94 125 41.88 125 48 125 C48 90.02 48 55.04 48 19 C37.605 19.495 37.605 19.495 27 20 C22.40685233 26.1241969 21.70114685 32.03582135 21.375 39.4375 C21.25125 41.933125 21.1275 44.42875 21 47 C14.07 47 7.14 47 0 47 C0 31.49 0 15.98 0 0 Z " fill="#3AE6FD" transform="translate(1206,931)"/>
<path d="M0 0 C24.75 0 49.5 0 75 0 C75 6.27 75 12.54 75 19 C68.73 19 62.46 19 56 19 C56 53.98 56 88.96 56 125 C62.27 125 68.54 125 75 125 C75.020625 127.949375 75.04125 130.89875 75.0625 133.9375 C75.071604 134.86812256 75.08070801 135.79874512 75.09008789 136.75756836 C75.09258545 137.48596924 75.09508301 138.21437012 75.09765625 138.96484375 C75.10289307 139.7137085 75.10812988 140.46257324 75.11352539 141.23413086 C75 143 75 143 74 144 C71.69946165 144.09443335 69.39597827 144.11742128 67.09350586 144.11352539 C66.37159561 144.11367142 65.64968536 144.11381744 64.90589905 144.1139679 C62.50885053 144.11326869 60.11187877 144.10547595 57.71484375 144.09765625 C56.05717511 144.0957921 54.39950593 144.09436818 52.74183655 144.09336853 C48.37045786 144.08954312 43.99911219 144.07971265 39.62774658 144.06866455 C35.17045539 144.05845092 30.71315889 144.05387101 26.25585938 144.04882812 C17.50388938 144.0380904 8.7519526 144.02049342 0 144 C0 137.73 0 131.46 0 125 C6.27 125 12.54 125 19 125 C19 90.02 19 55.04 19 19 C12.73 19 6.46 19 0 19 C0 12.73 0 6.46 0 0 Z " fill="#39E6FD" transform="translate(1119,931)"/>
<path d="M0 0 C12.29509142 8.37661763 17.1461752 20.99294419 20 35.0625 C23.40815456 53.65243395 21.39843516 77.01082455 11.58984375 93.421875 C6.28029465 100.95435533 0.16959436 106.2100567 -9 108.0625 C-17.11461356 109.07331691 -24.34630607 107.08162928 -31.125 102.5625 C-42.62104944 93.24199776 -46.04276368 78.0594922 -48 64.0625 C-48.27773223 60.32770652 -48.33459416 56.61915969 -48.3125 52.875 C-48.30758545 51.87686279 -48.3026709 50.87872559 -48.29760742 49.8503418 C-48.04972122 34.0326596 -45.33097691 16.97384402 -34 5.0625 C-25.28585516 -2.64616659 -10.69327689 -5.41195515 0 0 Z " fill="#FEFEFE" transform="translate(741,949.9375)"/>
<path d="M0 0 C8.25587152 5.06396034 15.08245053 12.91665079 21.80981445 19.79492188 C25.77684913 23.84263094 29.8390023 27.6659709 34.13598633 31.36083984 C36.88873077 33.78152435 39.44271869 36.37621112 42 39 C45.33630056 42.38722443 48.68053995 45.67517557 52.3125 48.75 C63.33619627 58.29462591 63.33619627 58.29462591 63.8125 64.1875 C62.96987651 68.14134867 62.19360865 69.33427152 59.0723877 71.75930786 C54.60012295 74.43675269 49.53969338 75.72086096 44.578125 77.21484375 C43.36413025 77.59306778 42.1501355 77.97129181 40.89935303 78.36097717 C37.67390266 79.36340415 34.44523392 80.35363548 31.21417236 81.33770752 C26.7246503 82.70865725 22.24259255 84.10390411 17.75891113 85.49380493 C15.27637629 86.262144 12.79290258 87.0274565 10.30847168 87.78964233 C4.98260698 89.42773499 -0.32794113 91.08557178 -5.59570312 92.90283203 C-6.4194342 93.18687393 -7.24316528 93.47091583 -8.09185791 93.76356506 C-9.5561617 94.27497111 -11.01732468 94.79552754 -12.47406006 95.32810974 C-16.78207967 96.83900416 -20.44423976 97.38288659 -25 97 C-27.75329021 95.20437595 -29.52627461 93.94745078 -31 91 C-32.07034901 82.63022169 -30.10317659 74.41685139 -28.4230957 66.26245117 C-28.24222412 65.38306885 -28.06135254 64.50368652 -27.875 63.59765625 C-27.62363281 62.41441772 -27.62363281 62.41441772 -27.3671875 61.20727539 C-26.8906012 58.71530539 -26.8906012 58.71530539 -27 55 C-27.66386719 54.84144531 -28.32773438 54.68289063 -29.01171875 54.51953125 C-34.52893896 53.06169642 -38.59080106 51.88651848 -42 47 C-42.88713951 42.83044432 -42.18131104 41.30596238 -40 37.625 C-37 35 -37 35 -33.25 34.5625 C-31.83003493 34.67163753 -30.41271479 34.81986468 -29 35 C-28.21334961 35.08628662 -27.42669922 35.17257324 -26.61621094 35.26147461 C-25.83020508 35.34921143 -25.04419922 35.43694824 -24.234375 35.52734375 C-23.43741211 35.6162085 -22.64044922 35.70507324 -21.81933594 35.79663086 C-21.21895508 35.86374268 -20.61857422 35.93085449 -20 36 C-19.7733667 35.01604248 -19.5467334 34.03208496 -19.31323242 33.01831055 C-18.46870719 29.36482402 -17.6099287 25.7148122 -16.74682617 22.06567383 C-16.37541948 20.4865064 -16.00787312 18.90642583 -15.64428711 17.32543945 C-15.1206723 15.05167966 -14.58321383 12.78157679 -14.04296875 10.51171875 C-13.88346237 9.80536789 -13.72395599 9.09901703 -13.55961609 8.3712616 C-12.04995101 2.13720937 -12.04995101 2.13720937 -9 0 C-5.41350116 -1.19549961 -3.64466267 -0.9145954 0 0 Z " fill="#FF224A" transform="translate(1285,518)"/>
<path d="M0 0 C4.08920079 -0.10001808 8.17791311 -0.17200015 12.26806641 -0.21972656 C13.65491156 -0.23965342 15.04167482 -0.2668056 16.42822266 -0.30175781 C26.06569742 -0.53834564 34.46682245 -0.20161612 42.40234375 5.82421875 C49.57892832 14.5347298 51.00521559 22.80678857 50 34 C48.38832539 42.50216753 45.13790216 48.7908701 38.07421875 53.921875 C32.89174407 56.61559065 27.73834878 57.2465631 21.97265625 57.1953125 C20.04389648 57.18564453 20.04389648 57.18564453 18.07617188 57.17578125 C16.73827846 57.15907601 15.40038783 57.14214619 14.0625 57.125 C12.69727217 57.11495322 11.3320372 57.10583036 9.96679688 57.09765625 C6.64434801 57.07417605 3.32226679 57.04133359 0 57 C0 55.68 0 54.36 0 53 C2.97 52.505 2.97 52.505 6 52 C6 36.82 6 21.64 6 6 C4.02 5.34 2.04 4.68 0 4 C0 2.68 0 1.36 0 0 Z " fill="#41E3F9" transform="translate(1063,1102)"/>
<path d="M0 0 C26.83783784 0 26.83783784 0 32.4375 5.3125 C35.91384244 11.291809 36.33888382 16.68851907 36.3125 23.4375 C36.32861328 24.25798828 36.34472656 25.07847656 36.36132812 25.92382812 C36.3666538 32.59689968 34.88489868 36.99812433 31.3125 42.6875 C26.88677301 47.11322699 22.06983023 48.78603395 16 50 C10.72 50 5.44 50 0 50 C0 33.5 0 17 0 0 Z " fill="#FEFEFE" transform="translate(1027,950)"/>
<path d="M0 0 C4.95 0 9.9 0 15 0 C15.33 7.26 15.66 14.52 16 22 C17.65 20.68 19.3 19.36 21 18 C24.20178039 16.39910981 27.51768987 16.6426734 31 17 C35.69784081 18.71651876 38.27586044 20.81649996 41 25 C42.89049949 29.64154892 43.35300865 33.91239711 43.3125 38.875 C43.30512817 39.93618042 43.30512817 39.93618042 43.29760742 41.01879883 C43.13953265 48.05109953 42.14432995 52.54186567 37.4375 57.9375 C33.09377702 61.6129579 29.56108183 61.38055549 24 61.3671875 C19.58085367 60.8263024 17.92620038 59.25133375 15 56 C14.01 58.475 14.01 58.475 13 61 C8.71 61 4.42 61 0 61 C0 59.68 0 58.36 0 57 C1.98 56.34 3.96 55.68 6 55 C6 38.83 6 22.66 6 6 C4.02 5.34 2.04 4.68 0 4 C0 2.68 0 1.36 0 0 Z " fill="#3EE2F9" transform="translate(910,1098)"/>
<path d="M0 0 C24.86046512 0 24.86046512 0 30.8125 5.6875 C36.62172147 14.48432109 37.40819554 23.38046134 35.49609375 33.7265625 C33.62217582 40.13000777 30.16145702 43.79158821 24.5 47.25 C16.25272254 51.37363873 9.87811679 50 0 50 C0 33.5 0 17 0 0 Z " fill="#FEFEFE" transform="translate(869,950)"/>
<path d="M0 0 C3.0625 2.125 3.0625 2.125 5 5 C5.58261109 8.49566653 5.31459577 10.33704009 3.79907227 13.53076172 C1.64587443 16.48603962 0.10452385 17.20667671 -3.28515625 18.5078125 C-4.36095947 18.93175293 -5.4367627 19.35569336 -6.54516602 19.79248047 C-8.28624634 20.45207764 -8.28624634 20.45207764 -10.0625 21.125 C-11.88649163 21.84151104 -13.71046773 22.55806613 -15.53330994 23.27749634 C-16.78958957 23.77259814 -18.04665146 24.26571932 -19.30445862 24.75692749 C-25.93831366 27.34934648 -32.50384879 30.09826125 -39.0625 32.875 C-40.11252197 33.31473145 -41.16254395 33.75446289 -42.24438477 34.20751953 C-47.91725309 36.60419823 -53.42737035 39.15799069 -58.85986328 42.06201172 C-61 43 -61 43 -64.8125 43.25 C-68.55244043 41.78335669 -70.08795437 40.34089512 -72.18359375 36.97265625 C-73.56206986 33.64188863 -73.07832962 31.36185117 -72 28 C-69.11049721 24.54216591 -66.1737232 22.92476323 -62.06640625 21.15234375 C-60.87362061 20.63438232 -59.68083496 20.1164209 -58.4519043 19.58276367 C-57.15583841 19.03339258 -55.85935982 18.48499426 -54.5625 17.9375 C-53.90593414 17.65742096 -53.24936829 17.37734192 -52.57290649 17.08877563 C-43.12560885 13.05992595 -33.62865754 9.14314965 -24.05758667 5.41726685 C-22.22919925 4.70377236 -20.40566552 3.97787932 -18.58227539 3.25170898 C-12.10562744 0.78099631 -6.94316645 -0.76444964 0 0 Z " fill="#FF244C" transform="translate(630,592)"/>
<path d="M0 0 C4.20707815 0.1618107 6.5377461 0.67257016 10 3.125 C12 6 12 6 12.25 9.4375 C9.55819816 17.10913526 0.93397222 21.14601932 -5.625 25.375 C-15.20025958 31.64559929 -24.31863842 38.39777009 -33.36328125 45.40625 C-34.14461426 46.00872559 -34.92594727 46.61120117 -35.73095703 47.23193359 C-37.22989517 48.39992477 -38.71570008 49.58499174 -40.18701172 50.78759766 C-46.45457397 55.79545217 -46.45457397 55.79545217 -51.5 55.375 C-52.3559375 55.32085938 -53.211875 55.26671875 -54.09375 55.2109375 C-54.7228125 55.14132812 -55.351875 55.07171875 -56 55 C-58.10924863 51.12880874 -58.54615489 48.44726123 -58 44 C-53.74346927 38.99334295 -48.28607092 35.24923893 -43.0625 31.3125 C-42.12245117 30.60061523 -41.18240234 29.88873047 -40.21386719 29.15527344 C-32.90013112 23.63551991 -25.50216012 18.2600894 -18 13 C-15.67598342 11.36405159 -13.35287119 9.72682929 -11.03027344 8.08886719 C-9.49414898 7.00608834 -7.95707181 5.92465955 -6.41894531 4.84472656 C-5.72768555 4.35842773 -5.03642578 3.87212891 -4.32421875 3.37109375 C-3.70635498 2.93724365 -3.08849121 2.50339355 -2.4519043 2.05639648 C-1.02101578 1.07293418 -1.02101578 1.07293418 0 0 Z " fill="#FF244C" transform="translate(446,683)"/>
<path d="M0 0 C26.67205029 -0.57154393 26.67205029 -0.57154393 34.625 5.3125 C38.62815759 9.84238885 39.3783361 13.9817285 39.18359375 19.984375 C38.75212918 24.72130521 37.74026139 28.04823536 34.8125 31.8125 C25.56419864 39.00562328 10.63648485 37 0 37 C0 24.79 0 12.58 0 0 Z " fill="#FDFEFE" transform="translate(1027,1019)"/>
<path d="M0 0 C6.39145232 4.29312646 10.10653403 10.03260793 12.0703125 17.390625 C12.45891587 20.38507817 12.50125945 23.31181272 12.4453125 26.328125 C12.43516113 27.11936768 12.42500977 27.91061035 12.41455078 28.72583008 C12.19133884 37.1170416 10.73062869 43.67634302 4.76953125 49.8828125 C-0.76645318 54.79520328 -5.6872558 55.74179446 -13.0546875 55.828125 C-14.0763501 55.8434729 -14.0763501 55.8434729 -15.11865234 55.85913086 C-21.20586869 55.75320826 -25.15064409 54.004176 -29.6171875 49.953125 C-36.64767444 42.16258541 -38.51642956 33.74872164 -38.21875 23.31640625 C-37.39937483 15.02300082 -34.72843203 8.08384885 -28.6796875 2.203125 C-19.88741048 -3.59178486 -9.58800005 -4.879914 0 0 Z M-23.9296875 6.390625 C-27.98050624 13.09542844 -28.13747224 19.01021706 -28.1796875 26.640625 C-28.2003125 27.55714844 -28.2209375 28.47367188 -28.2421875 29.41796875 C-28.28444512 36.82361648 -27.40980844 42.61525156 -22.3046875 48.328125 C-18.08694615 50.9056336 -14.84163797 51.65636752 -9.9296875 51.390625 C-4.16439111 49.9493009 -1.82104998 47.50841508 1.125 42.62109375 C4.97618031 33.53421789 4.3380942 19.61515027 1.05859375 10.3828125 C-0.4306219 7.38083628 -2.29896538 5.42943464 -4.9296875 3.390625 C-11.80739796 1.09805485 -18.45663841 1.31804292 -23.9296875 6.390625 Z " fill="#3FE3FA" transform="translate(854.9296875,1103.609375)"/>
<path d="M0 0 C14.89473684 0 14.89473684 0 19 4 C24.19304786 10.20280717 25.46255236 17.6730102 25.25390625 25.6015625 C24.54397933 32.30764137 23.12836774 39.31120664 18 44 C11.92351206 48.40545376 8.48245203 47 0 47 C0 31.49 0 15.98 0 0 Z " fill="#FDFEFE" transform="translate(1079,1107)"/>
<path d="M0 0 C13.2 0 26.4 0 40 0 C40 4.62 40 9.24 40 14 C38.68 14 37.36 14 36 14 C35.81824219 13.43410156 35.63648438 12.86820313 35.44921875 12.28515625 C35.19785156 11.55167969 34.94648437 10.81820313 34.6875 10.0625 C34.44386719 9.33160156 34.20023438 8.60070313 33.94921875 7.84765625 C33.08759559 5.64067976 33.08759559 5.64067976 30 5 C27.60745424 4.77439324 25.21071877 4.59151405 22.8125 4.4375 C19.4403125 4.2209375 19.4403125 4.2209375 16 4 C16 10.93 16 17.86 16 25 C22.27 25 28.54 25 35 25 C35 26.32 35 27.64 35 29 C28.73 29 22.46 29 16 29 C16 36.59 16 44.18 16 52 C20.640625 51.8453125 20.640625 51.8453125 25.375 51.6875 C26.83558838 51.65015747 26.83558838 51.65015747 28.32568359 51.61206055 C29.09219238 51.57894775 29.85870117 51.54583496 30.6484375 51.51171875 C31.82672119 51.47244263 31.82672119 51.47244263 33.02880859 51.43237305 C35.40040156 51.15110403 35.40040156 51.15110403 37 48 C37.70164642 46.01200182 38.37372872 44.01301483 39 42 C40.32 42 41.64 42 43 42 C43 46.95 43 51.9 43 57 C28.81 57 14.62 57 0 57 C0 55.68 0 54.36 0 53 C1.98 52.34 3.96 51.68 6 51 C6 36.15 6 21.3 6 6 C4.02 5.34 2.04 4.68 0 4 C0 2.68 0 1.36 0 0 Z " fill="#40E2F8" transform="translate(1120,1102)"/>
<path d="M0 0 C2.01844514 0.25519722 4.03899044 0.47970117 6.06103516 0.7043457 C7.34880859 0.86870117 8.63658203 1.03305664 9.96337891 1.20239258 C11.12401855 1.34378662 12.2846582 1.48518066 13.48046875 1.63085938 C17.36359327 2.7843492 19.05827312 4.48444475 21.62744141 7.56567383 C22.53482282 10.59215718 22.09177273 12.31535453 21.62744141 15.56567383 C20.27978516 17.78442383 20.27978516 17.78442383 17.62744141 19.56567383 C13.95585135 20.15660947 10.33797382 20.08282385 6.62744141 20.00317383 C5.56759033 19.99068604 4.50773926 19.97819824 3.41577148 19.96533203 C-3.67853928 19.81008272 -10.66172163 19.26163625 -17.68505859 18.25317383 C-18.51972656 18.13578857 -19.35439453 18.01840332 -20.21435547 17.89746094 C-24.25558776 17.23505393 -26.74026903 16.74248991 -29.37255859 13.56567383 C-30.30823329 10.57375592 -30.56999452 7.69174261 -30.37255859 4.56567383 C-24.21845099 -5.62043531 -10.09320039 -1.30414969 0 0 Z " fill="#FF244B" transform="translate(1134.37255859375,531.434326171875)"/>
<path d="M0 0 C2.5 1.5 2.5 1.5 4 4 C4.75584187 9.35534472 4.28606776 12.12642499 1.18359375 16.5859375 C-0.04634704 18.19678783 -1.29595137 19.7927713 -2.5625 21.375 C-3.85105631 23.04756423 -5.13882492 24.72073561 -6.42578125 26.39453125 C-7.04533691 27.18811035 -7.66489258 27.98168945 -8.30322266 28.79931641 C-10.92846881 32.20420401 -13.34373395 35.73346551 -15.765625 39.28515625 C-18.36357916 42.8943394 -18.36357916 42.8943394 -21.0234375 43.3359375 C-27.27865459 43.43984476 -27.27865459 43.43984476 -30.5625 41.4375 C-32.6047009 37.9746376 -32.43888913 36.00985072 -32 32 C-30.50396673 28.70294574 -28.5705689 25.75622651 -26.5625 22.75 C-26.01988525 21.91605713 -25.47727051 21.08211426 -24.91821289 20.22290039 C-10.48561922 -1.64563038 -10.48561922 -1.64563038 0 0 Z " fill="#FF244B" transform="translate(304,818)"/>
<path d="M0 0 C7.59 0 15.18 0 23 0 C23 1.32 23 2.64 23 4 C20.69 4.33 18.38 4.66 16 5 C16.33 20.18 16.66 35.36 17 51 C18.98 51.66 20.96 52.32 23 53 C23 54.32 23 55.64 23 57 C15.41 57 7.82 57 0 57 C0 55.68 0 54.36 0 53 C1.98 52.34 3.96 51.68 6 51 C6 36.15 6 21.3 6 6 C4.02 5.34 2.04 4.68 0 4 C0 2.68 0 1.36 0 0 Z " fill="#41E2F8" transform="translate(1034,1102)"/>
<path d="M0 0 C2.9375 2 2.9375 2 5 4 C4.6875 6.875 4.6875 6.875 4 10 C1 12 1 12 -3 12 C-3.66 10.35 -4.32 8.7 -5 7 C-7.42267086 6.94832473 -7.42267086 6.94832473 -10 8 C-13.61973692 14.14672308 -13.35659901 19.95241021 -13.1875 26.9375 C-13.17396484 28.00291016 -13.16042969 29.06832031 -13.14648438 30.16601562 C-13.11134724 32.77787588 -13.06215184 35.38866634 -13 38 C-10.69 38.66 -8.38 39.32 -6 40 C-6 41.32 -6 42.64 -6 44 C-13.59 44 -21.18 44 -29 44 C-29 42.68 -29 41.36 -29 40 C-28.195625 39.71125 -27.39125 39.4225 -26.5625 39.125 C-23.8673532 38.26737432 -23.8673532 38.26737432 -23 36 C-22.91426606 33.74879258 -22.89287812 31.49500697 -22.90234375 29.2421875 C-22.90446617 28.24761032 -22.90446617 28.24761032 -22.90663147 27.23294067 C-22.91223246 25.11358137 -22.924785 22.99432741 -22.9375 20.875 C-22.94251488 19.43880361 -22.94707781 18.00260556 -22.95117188 16.56640625 C-22.96220218 13.04423655 -22.97946741 9.52212855 -23 6 C-25.97 5.505 -25.97 5.505 -29 5 C-29 3.68 -29 2.36 -29 1 C-24.71 1 -20.42 1 -16 1 C-15.34 2.65 -14.68 4.3 -14 6 C-13.401875 5.195625 -12.80375 4.39125 -12.1875 3.5625 C-8.67272779 -0.55480459 -5.19678263 -0.4479985 0 0 Z " fill="#3FE2F9" transform="translate(903,1115)"/>
<path d="M0 0 C3.52019202 2.69631729 5.24555833 4.67910679 6 9 C6.52085967 16.48234955 6.74890273 24.25814612 3 31 C-0.7373856 33.4915904 -2.57331583 33.45793285 -7 33 C-10.4338606 31.09229967 -11.71130559 29.64612558 -13.3125 26.0625 C-15.1107424 18.05686315 -15.28679322 9.14465536 -11 2 C-7.32317905 -0.45121397 -4.27079037 -0.82418762 0 0 Z " fill="#FDFEFE" transform="translate(939,1121)"/>
<path d="M0 0 C1.32 0 2.64 0 4 0 C4 3.3 4 6.6 4 10 C7.3 10 10.6 10 14 10 C14 11.65 14 13.3 14 15 C10.7 15 7.4 15 4 15 C4.0934535 19.3786383 4.19952754 23.75673196 4.31738281 28.13476562 C4.35569998 29.62458889 4.39054808 31.11450554 4.421875 32.60449219 C4.46746729 34.74448048 4.52546874 36.88382436 4.5859375 39.0234375 C4.6173584 40.31169434 4.6487793 41.59995117 4.68115234 42.92724609 C4.68458268 46.10481505 4.68458268 46.10481505 7 48 C9.68839385 48.26991906 12.29141936 48.08737357 15 48 C14.67 49.65 14.34 51.3 14 53 C11.91781638 53.10832169 9.83400871 53.18573541 7.75 53.25 C6.58984375 53.29640625 5.4296875 53.3428125 4.234375 53.390625 C1 53 1 53 -1.359375 51.109375 C-4.28000091 47.35428454 -4.13202385 44.39680186 -4.09765625 39.8046875 C-4.0962413 39.09724396 -4.09482635 38.38980042 -4.09336853 37.66091919 C-4.087766 35.39890331 -4.07521318 33.13698602 -4.0625 30.875 C-4.05748532 29.34244935 -4.05292236 27.80989714 -4.04882812 26.27734375 C-4.03779577 22.51819112 -4.02052952 18.75911228 -4 15 C-5.98 15 -7.96 15 -10 15 C-10 13.68 -10 12.36 -10 11 C-9.236875 10.773125 -8.47375 10.54625 -7.6875 10.3125 C-4.38790411 8.70106945 -3.62096043 7.24192087 -2 4 C-1.608125 3.236875 -1.21625 2.47375 -0.8125 1.6875 C-0.544375 1.130625 -0.27625 0.57375 0 0 Z " fill="#3FE2F9" transform="translate(994,1106)"/>
<path d="M0 0 C4.62 0 9.24 0 14 0 C14.33 12.54 14.66 25.08 15 38 C18.465 38.495 18.465 38.495 22 39 C22 40.32 22 41.64 22 43 C14.41 43 6.82 43 -1 43 C-1 41.68 -1 40.36 -1 39 C0.98 38.34 2.96 37.68 5 37 C5 26.77 5 16.54 5 6 C2.525 5.01 2.525 5.01 0 4 C0 2.68 0 1.36 0 0 Z " fill="#3EE3F9" transform="translate(960,1116)"/>
<path d="M0 0 C2.4375 0.8125 2.4375 0.8125 4.4375 2.8125 C4.8125 5.25 4.8125 5.25 4.4375 7.8125 C2.75 9.75 2.75 9.75 0.4375 10.8125 C-1.95513407 10.14478817 -3.78347385 9.59152615 -5.5625 7.8125 C-5.8607732 4.97890458 -5.91852594 3.37464622 -4.375 0.9375 C-2.5625 -0.1875 -2.5625 -0.1875 0 0 Z " fill="#48E2F7" transform="translate(970.5625,1098.1875)"/>
</svg>
